<?xml version="1.0" standalone="no"?>
<!DOCTYPE svg PUBLIC "-//W3C//DTD SVG 20010904//EN"
 "http://www.w3.org/TR/2001/REC-SVG-20010904/DTD/svg10.dtd">
<svg version="1.0" xmlns="http://www.w3.org/2000/svg"
 width="752.000000pt" height="752.000000pt" viewBox="0 0 752.000000 752.000000"
 preserveAspectRatio="xMidYMid meet">

<g transform="translate(0.000000,752.000000) scale(0.100000,-0.100000)"
fill="#000000" stroke="none">
<path d="M3420 5605 l0 -375 125 0 126 0 -3 -157 -3 -157 -460 -213 c-253
-116 -466 -212 -473 -212 -7 -1 -73 27 -147 61 l-135 61 0 294 0 293 -340 0
-340 0 0 -370 0 -370 283 -1 282 0 145 -68 145 -68 3 -519 2 -520 -150 -67
-151 -67 -279 0 -280 0 0 -370 0 -370 340 0 340 0 0 293 0 294 138 61 c75 34
142 62 147 62 6 0 217 -96 470 -213 l460 -213 3 -202 2 -202 -125 0 -125 0 0
-375 0 -375 340 0 340 0 0 375 0 375 -125 0 -125 0 2 202 3 202 464 213 c255
117 468 213 475 213 6 0 71 -29 144 -65 l132 -64 0 -291 0 -290 340 0 340 0 0
370 0 370 -284 0 -284 0 -146 70 -146 69 2 513 3 513 135 47 135 47 293 0 292
1 0 375 0 375 -340 0 -340 0 -2 -292 -3 -293 -120 -42 c-66 -23 -129 -42 -140
-42 -11 -1 -229 95 -485 212 l-465 213 -3 157 -3 157 126 0 125 0 0 375 0 375
-340 0 -340 0 0 -375z m500 5 l0 -180 -155 0 -155 0 0 180 0 180 155 0 155 0
0 -180z m-1660 -780 l0 -180 -150 0 -150 0 0 180 0 180 150 0 150 0 0 -180z
m3300 -45 l0 -185 -150 0 -150 0 0 185 0 185 150 0 150 0 0 -185z m-1402 -219
c217 -100 394 -186 394 -191 -1 -11 -782 -367 -798 -363 -26 6 -794 363 -794
370 0 3 12 11 28 16 15 6 194 87 397 180 204 94 372 171 375 171 3 0 182 -82
398 -183z m-913 -531 l420 -195 3 -465 c1 -304 -1 -465 -8 -465 -9 0 -149 63
-665 300 l-170 79 -3 470 c-1 259 -1 471 1 471 2 0 192 -88 422 -195z m1448
-746 c-12 -10 -821 -379 -833 -379 -7 0 -10 151 -10 465 0 434 1 466 18 472 9
4 199 91 422 195 l405 187 3 -466 c1 -257 -1 -470 -5 -474z m-2433 -514 l0
-185 -150 0 -150 0 0 185 0 185 150 0 150 0 0 -185z m3300 5 l0 -180 -150 0
-150 0 0 180 0 180 150 0 150 0 0 -180z m-1640 -865 l0 -185 -155 0 -155 0 0
185 0 185 155 0 155 0 0 -185z"/>
</g>
</svg>
